<svg xmlns="http://www.w3.org/2000/svg" viewBox="0 0 400 220" preserveAspectRatio="xMidYMid slice">
  <rect width="400" height="220" fill="#efe3cf"/>
  <ellipse cx="200" cy="160" rx="150" ry="34" fill="#000" opacity="0.05"/>
  <g transform="translate(150 110) rotate(-8)">
    <path d="M-70 -40 q70 -26 140 0 l0 16 q-70 -22 -140 0Z" fill="#e8c07a"/>
    <rect x="-70" y="-24" width="140" height="14" fill="#7fae4e"/>
    <rect x="-70" y="-12" width="140" height="16" fill="#e0533d"/>
    <rect x="-70" y="2" width="140" height="14" fill="#f4e3a0"/>
    <path d="M-70 16 q70 22 140 0 l0 -16 q-70 22 -140 0Z" fill="#e2b56a"/>
  </g>
  <g transform="translate(262 124) rotate(10)">
    <path d="M-58 -34 q58 -22 116 0 l0 14 q-58 -18 -116 0Z" fill="#e8c07a"/>
    <rect x="-58" y="-20" width="116" height="12" fill="#7fae4e"/>
    <rect x="-58" y="-10" width="116" height="14" fill="#d98c5a"/>
    <path d="M-58 4 q58 18 116 0 l0 -12 q-58 18 -116 0Z" fill="#e2b56a"/>
  </g>
  <g fill="#cf7a2c" opacity="0.35"><circle cx="120" cy="78" r="3"/><circle cx="150" cy="70" r="3"/><circle cx="180" cy="78" r="3"/></g>
</svg>
