<svg xmlns="http://www.w3.org/2000/svg" viewBox="0 0 400 220" preserveAspectRatio="xMidYMid slice">
  <rect width="400" height="220" fill="#e9f0d8"/>
  <ellipse cx="200" cy="120" rx="120" ry="94" fill="#000" opacity="0.05"/>
  <ellipse cx="200" cy="114" rx="114" ry="88" fill="#fbf7ee"/>
  <ellipse cx="200" cy="120" rx="96" ry="70" fill="#eee6d2"/>
  <g>
    <path d="M118 112 q34 -52 92 -40 q-26 50 -92 40Z" fill="#5f9a45"/>
    <path d="M140 148 q40 -48 100 -36 q-30 46 -100 36Z" fill="#74b252"/>
    <path d="M200 96 q48 -34 104 -8 q-38 40 -104 8Z" fill="#6aa84b"/>
    <path d="M210 150 q48 -42 106 -16 q-38 42 -106 16Z" fill="#80bd5d"/>
  </g>
  <circle cx="150" cy="158" r="17" fill="#e0533d"/><circle cx="143" cy="151" r="5" fill="#f3a08f" opacity="0.8"/>
  <circle cx="276" cy="132" r="15" fill="#e0533d"/>
  <g transform="translate(236 162)"><circle r="16" fill="#86b94e"/><circle r="11" fill="#cfe6a6"/></g>
  <g transform="translate(188 110)"><circle r="14" fill="#86b94e"/><circle r="9" fill="#cfe6a6"/></g>
  <g fill="#fdfaf2"><rect x="206" y="130" width="16" height="15" rx="3" transform="rotate(8 214 137)"/><rect x="168" y="96" width="14" height="14" rx="3" transform="rotate(-12 175 103)"/></g>
</svg>
